<svg width="802" height="585" viewBox="0 0 802 585" fill="none" xmlns="http://www.w3.org/2000/svg">
<g filter="url(#filter0_d_2_286)">
<mask id="path-1-inside-1_2_286" fill="white">
<path fill-rule="evenodd" clip-rule="evenodd" d="M34.3116 50.0818C29.0684 50.4436 25 54.8024 25 60.0581V489.141C25 493.021 27.2449 496.551 30.7591 498.197L158.603 558.065C159.931 558.686 161.379 559.008 162.844 559.008H741.143C746.456 559.008 750.841 554.855 751.129 549.55L761.133 365.101L733.704 356.562C731.614 355.911 730.19 353.976 730.19 351.788V145.106C730.19 142.729 731.863 140.68 734.193 140.206L773.767 132.15L776.748 77.1892C777.058 71.4619 772.498 66.6476 766.762 66.6476H438.943C436.424 66.6476 433.999 65.6974 432.15 63.9867L393.737 28.4344C391.714 26.5616 389.007 25.6074 386.256 25.7972L34.3116 50.0818Z"/>
</mask>
<path fill-rule="evenodd" clip-rule="evenodd" d="M34.3116 50.0818C29.0684 50.4436 25 54.8024 25 60.0581V489.141C25 493.021 27.2449 496.551 30.7591 498.197L158.603 558.065C159.931 558.686 161.379 559.008 162.844 559.008H741.143C746.456 559.008 750.841 554.855 751.129 549.55L761.133 365.101L733.704 356.562C731.614 355.911 730.19 353.976 730.19 351.788V145.106C730.19 142.729 731.863 140.68 734.193 140.206L773.767 132.15L776.748 77.1892C777.058 71.4619 772.498 66.6476 766.762 66.6476H438.943C436.424 66.6476 433.999 65.6974 432.15 63.9867L393.737 28.4344C391.714 26.5616 389.007 25.6074 386.256 25.7972L34.3116 50.0818Z" fill="url(#paint0_linear_2_286)"/>
<path d="M34.3116 50.0818L34.6558 55.0699H34.6558L34.3116 50.0818ZM30.7591 498.197L28.6386 502.725H28.6387L30.7591 498.197ZM158.603 558.065L156.483 562.593L156.483 562.593L158.603 558.065ZM751.129 549.55L756.122 549.821V549.821L751.129 549.55ZM761.133 365.101L766.125 365.372L766.336 361.485L762.619 360.327L761.133 365.101ZM733.704 356.562L732.217 361.336H732.217L733.704 356.562ZM734.193 140.206L735.19 145.106L734.193 140.206ZM773.767 132.15L774.764 137.05L778.55 136.279L778.76 132.421L773.767 132.15ZM776.748 77.1892L781.74 77.46V77.4599L776.748 77.1892ZM432.15 63.9867L435.547 60.3172L435.547 60.3172L432.15 63.9867ZM393.737 28.4344L390.341 32.1039V32.1039L393.737 28.4344ZM386.256 25.7972L385.912 20.809L386.256 25.7972ZM30 60.0581C30 57.4302 32.0342 55.2508 34.6558 55.0699L33.9674 45.0936C26.1026 45.6363 20 52.1745 20 60.0581H30ZM30 489.141V60.0581H20V489.141H30ZM32.8796 493.669C31.1224 492.846 30 491.081 30 489.141H20C20 494.961 23.3674 500.256 28.6386 502.725L32.8796 493.669ZM160.724 553.536L32.8796 493.669L28.6387 502.725L156.483 562.593L160.724 553.536ZM162.844 554.008C162.112 554.008 161.388 553.847 160.724 553.536L156.483 562.593C158.474 563.525 160.646 564.008 162.844 564.008V554.008ZM741.143 554.008H162.844V564.008H741.143V554.008ZM746.136 549.279C745.992 551.931 743.8 554.008 741.143 554.008V564.008C749.112 564.008 755.69 557.778 756.122 549.821L746.136 549.279ZM756.14 364.831L746.136 549.279L756.122 549.821L766.125 365.372L756.14 364.831ZM762.619 360.327L735.19 351.788L732.217 361.336L759.646 369.875L762.619 360.327ZM735.19 351.788L735.19 351.788H725.19C725.19 356.165 728.038 360.034 732.217 361.336L735.19 351.788ZM735.19 351.788V145.106H725.19V351.788H735.19ZM735.19 145.106V145.106L733.195 135.307C728.537 136.255 725.19 140.352 725.19 145.106H735.19ZM735.19 145.106L774.764 137.05L772.77 127.251L733.195 135.307L735.19 145.106ZM771.755 76.9184L768.774 131.879L778.76 132.421L781.74 77.46L771.755 76.9184ZM766.762 71.6476C769.63 71.6476 771.91 74.0548 771.755 76.9184L781.74 77.4599C782.206 68.8691 775.366 61.6476 766.762 61.6476V71.6476ZM438.943 71.6476H766.762V61.6476H438.943V71.6476ZM428.754 67.6562C431.527 70.2222 435.165 71.6476 438.943 71.6476V61.6476C437.684 61.6476 436.471 61.1725 435.547 60.3172L428.754 67.6562ZM390.341 32.1039L428.754 67.6562L435.547 60.3172L397.133 24.7648L390.341 32.1039ZM386.6 30.7853C387.976 30.6904 389.329 31.1676 390.341 32.1039L397.133 24.7648C394.098 21.9557 390.038 20.5244 385.912 20.809L386.6 30.7853ZM34.6558 55.0699L386.6 30.7853L385.912 20.809L33.9674 45.0936L34.6558 55.0699Z" fill="#20C9FF" mask="url(#path-1-inside-1_2_286)"/>
</g>
<defs>
<filter id="filter0_d_2_286" x="0" y="0.773438" width="801.763" height="583.235" filterUnits="userSpaceOnUse" color-interpolation-filters="sRGB">
<feFlood flood-opacity="0" result="BackgroundImageFix"/>
<feColorMatrix in="SourceAlpha" type="matrix" values="0 0 0 0 0 0 0 0 0 0 0 0 0 0 0 0 0 0 127 0" result="hardAlpha"/>
<feOffset/>
<feGaussianBlur stdDeviation="12.5"/>
<feComposite in2="hardAlpha" operator="out"/>
<feColorMatrix type="matrix" values="0 0 0 0 0 0 0 0 0 0.87451 0 0 0 0 0.945098 0 0 0 1 0"/>
<feBlend mode="normal" in2="BackgroundImageFix" result="effect1_dropShadow_2_286"/>
<feBlend mode="normal" in="SourceGraphic" in2="effect1_dropShadow_2_286" result="shape"/>
</filter>
<linearGradient id="paint0_linear_2_286" x1="449.16" y1="44.9152" x2="490.968" y2="670.017" gradientUnits="userSpaceOnUse">
<stop stop-color="#425E6D"/>
<stop offset="1" stop-color="#414344"/>
</linearGradient>
</defs>
</svg>
