<svg width="317" height="122" viewBox="0 0 317 122" fill="none" xmlns="http://www.w3.org/2000/svg">
<g filter="url(#filter0_d_250_85)">
<path d="M25.2766 30.2625C25.1263 27.4019 27.4052 25 30.2697 25H287C289.761 25 292 27.2386 292 30V63.6342C292 65.4867 291.266 67.2637 289.958 68.5758L263.739 94.8814C262.39 96.2346 260.547 96.9777 258.636 96.9383L33.1778 92.2858C30.5587 92.2318 28.4253 90.1654 28.2878 87.5493L25.2766 30.2625Z" fill="#D2FF20"/>
</g>
<path d="M100.935 68.3409V54.017H105.793V56.0568H103.629V66.3011H105.793V68.3409H100.935ZM117.545 59.5795H114.704C114.666 59.2879 114.588 59.0246 114.471 58.7898C114.353 58.5549 114.198 58.3542 114.005 58.1875C113.812 58.0208 113.583 57.8939 113.317 57.8068C113.056 57.7159 112.766 57.6705 112.448 57.6705C111.884 57.6705 111.397 57.8087 110.988 58.0852C110.583 58.3617 110.27 58.7614 110.05 59.2841C109.835 59.8068 109.727 60.4394 109.727 61.1818C109.727 61.9545 109.836 62.6023 110.056 63.125C110.28 63.6439 110.592 64.036 110.994 64.3011C111.399 64.5625 111.878 64.6932 112.431 64.6932C112.742 64.6932 113.024 64.6534 113.278 64.5739C113.535 64.4943 113.761 64.3788 113.954 64.2273C114.151 64.072 114.312 63.8845 114.437 63.6648C114.566 63.4413 114.655 63.1894 114.704 62.9091L117.545 62.9261C117.496 63.4413 117.346 63.9489 117.096 64.4489C116.85 64.9489 116.511 65.4053 116.079 65.8182C115.647 66.2273 115.121 66.553 114.499 66.7955C113.882 67.0379 113.174 67.1591 112.374 67.1591C111.321 67.1591 110.378 66.928 109.545 66.4659C108.715 66 108.06 65.322 107.579 64.4318C107.098 63.5417 106.857 62.4583 106.857 61.1818C106.857 59.9015 107.102 58.8163 107.59 57.9261C108.079 57.036 108.74 56.3598 109.573 55.8977C110.406 55.4356 111.34 55.2045 112.374 55.2045C113.079 55.2045 113.73 55.303 114.329 55.5C114.927 55.6932 115.454 55.9773 115.908 56.3523C116.363 56.7235 116.732 57.1799 117.016 57.7216C117.3 58.2633 117.477 58.8826 117.545 59.5795ZM123.228 67.1648C122.311 67.1648 121.523 66.9773 120.864 66.6023C120.209 66.2235 119.703 65.697 119.347 65.0227C118.995 64.3447 118.819 63.5587 118.819 62.6648C118.819 61.767 118.995 60.9811 119.347 60.3068C119.703 59.6288 120.209 59.1023 120.864 58.7273C121.523 58.3485 122.311 58.1591 123.228 58.1591C124.145 58.1591 124.931 58.3485 125.586 58.7273C126.245 59.1023 126.751 59.6288 127.103 60.3068C127.459 60.9811 127.637 61.767 127.637 62.6648C127.637 63.5587 127.459 64.3447 127.103 65.0227C126.751 65.697 126.245 66.2235 125.586 66.6023C124.931 66.9773 124.145 67.1648 123.228 67.1648ZM123.245 65.0682C123.578 65.0682 123.861 64.9659 124.092 64.7614C124.323 64.5568 124.499 64.2727 124.62 63.9091C124.745 63.5455 124.808 63.125 124.808 62.6477C124.808 62.1629 124.745 61.7386 124.62 61.375C124.499 61.0114 124.323 60.7273 124.092 60.5227C123.861 60.3182 123.578 60.2159 123.245 60.2159C122.9 60.2159 122.609 60.3182 122.37 60.5227C122.135 60.7273 121.955 61.0114 121.83 61.375C121.709 61.7386 121.648 62.1629 121.648 62.6477C121.648 63.125 121.709 63.5455 121.83 63.9091C121.955 64.2727 122.135 64.5568 122.37 64.7614C122.609 64.9659 122.9 65.0682 123.245 65.0682ZM129.06 67V58.2727H131.702V59.875H131.799C131.981 59.3447 132.288 58.9261 132.719 58.6193C133.151 58.3125 133.666 58.1591 134.265 58.1591C134.871 58.1591 135.39 58.3144 135.822 58.625C136.254 58.9356 136.528 59.3523 136.646 59.875H136.737C136.899 59.3561 137.218 58.9413 137.691 58.6307C138.165 58.3163 138.723 58.1591 139.367 58.1591C140.193 58.1591 140.863 58.4242 141.379 58.9545C141.894 59.4811 142.151 60.2045 142.151 61.125V67H139.373V61.7614C139.373 61.3258 139.261 60.9943 139.038 60.767C138.814 60.536 138.524 60.4205 138.168 60.4205C137.786 60.4205 137.485 60.5455 137.265 60.7955C137.049 61.0417 136.941 61.3731 136.941 61.7898V67H134.271V61.733C134.271 61.3277 134.161 61.0076 133.941 60.7727C133.721 60.5379 133.432 60.4205 133.072 60.4205C132.829 60.4205 132.615 60.4792 132.43 60.5966C132.244 60.7102 132.098 60.8731 131.992 61.0852C131.89 61.2973 131.839 61.5473 131.839 61.8352V67H129.06ZM143.873 67V58.2727H146.651V67H143.873ZM145.265 57.2557C144.875 57.2557 144.54 57.1269 144.259 56.8693C143.979 56.608 143.839 56.2936 143.839 55.9261C143.839 55.5625 143.979 55.2519 144.259 54.9943C144.54 54.733 144.875 54.6023 145.265 54.6023C145.659 54.6023 145.994 54.733 146.271 54.9943C146.551 55.2519 146.691 55.5625 146.691 55.9261C146.691 56.2936 146.551 56.608 146.271 56.8693C145.994 57.1269 145.659 57.2557 145.265 57.2557ZM151.198 62.0227V67H148.42V58.2727H151.062V59.875H151.158C151.352 59.3409 151.681 58.9223 152.147 58.6193C152.613 58.3125 153.168 58.1591 153.812 58.1591C154.425 58.1591 154.958 58.2973 155.408 58.5739C155.863 58.8466 156.215 59.2292 156.465 59.7216C156.719 60.2102 156.844 60.7822 156.84 61.4375V67H154.062V61.983C154.066 61.4981 153.942 61.1193 153.692 60.8466C153.446 60.5739 153.103 60.4375 152.664 60.4375C152.372 60.4375 152.115 60.5019 151.891 60.6307C151.672 60.7557 151.501 60.9356 151.38 61.1705C151.263 61.4053 151.202 61.6894 151.198 62.0227ZM162.629 70.4545C161.799 70.4545 161.089 70.339 160.498 70.108C159.907 69.8769 159.443 69.5606 159.106 69.1591C158.769 68.7576 158.566 68.303 158.498 67.7955L161.129 67.6477C161.178 67.8258 161.269 67.9811 161.401 68.1136C161.538 68.2462 161.714 68.3485 161.93 68.4205C162.149 68.4924 162.407 68.5284 162.702 68.5284C163.168 68.5284 163.553 68.4148 163.856 68.1875C164.163 67.964 164.316 67.572 164.316 67.0114V65.4773H164.219C164.11 65.7462 163.943 65.9867 163.719 66.1989C163.496 66.411 163.218 66.5777 162.884 66.6989C162.555 66.8201 162.176 66.8807 161.748 66.8807C161.112 66.8807 160.528 66.733 159.998 66.4375C159.471 66.1383 159.049 65.6761 158.731 65.0511C158.416 64.4223 158.259 63.6136 158.259 62.625C158.259 61.6061 158.422 60.767 158.748 60.108C159.074 59.4451 159.5 58.9545 160.026 58.6364C160.557 58.3182 161.127 58.1591 161.737 58.1591C162.195 58.1591 162.587 58.2386 162.913 58.3977C163.242 58.553 163.513 58.7538 163.725 59C163.937 59.2462 164.098 59.5019 164.208 59.767H164.288V58.2727H167.055V67.0341C167.055 67.7727 166.869 68.3958 166.498 68.9034C166.127 69.411 165.608 69.7955 164.941 70.0568C164.274 70.322 163.504 70.4545 162.629 70.4545ZM162.714 64.858C163.051 64.858 163.339 64.7689 163.577 64.5909C163.816 64.4129 164 64.1572 164.129 63.8239C164.257 63.4905 164.322 63.0909 164.322 62.625C164.322 62.1515 164.257 61.7443 164.129 61.4034C164.004 61.0587 163.82 60.7936 163.577 60.608C163.339 60.4223 163.051 60.3295 162.714 60.3295C162.369 60.3295 162.077 60.4242 161.839 60.6136C161.6 60.803 161.418 61.0701 161.293 61.4148C161.172 61.7557 161.112 62.1591 161.112 62.625C161.112 63.0909 161.174 63.4905 161.299 63.8239C161.424 64.1572 161.604 64.4129 161.839 64.5909C162.077 64.7689 162.369 64.858 162.714 64.858ZM178.553 58.8523C178.515 58.4356 178.347 58.1117 178.048 57.8807C177.752 57.6458 177.33 57.5284 176.781 57.5284C176.417 57.5284 176.114 57.5758 175.871 57.6705C175.629 57.7652 175.447 57.8958 175.326 58.0625C175.205 58.2254 175.142 58.4129 175.138 58.625C175.131 58.7992 175.165 58.9527 175.241 59.0852C175.32 59.2178 175.434 59.3352 175.582 59.4375C175.733 59.536 175.915 59.6231 176.127 59.6989C176.339 59.7746 176.578 59.8409 176.843 59.8977L177.843 60.125C178.419 60.25 178.926 60.4167 179.366 60.625C179.809 60.8333 180.18 61.0814 180.479 61.3693C180.782 61.6572 181.012 61.9886 181.167 62.3636C181.322 62.7386 181.402 63.1591 181.406 63.625C181.402 64.3598 181.216 64.9905 180.849 65.517C180.481 66.0436 179.953 66.447 179.263 66.7273C178.578 67.0076 177.75 67.1477 176.781 67.1477C175.807 67.1477 174.959 67.0019 174.235 66.7102C173.512 66.4186 172.949 65.9754 172.548 65.3807C172.146 64.786 171.94 64.0341 171.928 63.125H174.621C174.644 63.5 174.745 63.8125 174.923 64.0625C175.101 64.3125 175.345 64.5019 175.656 64.6307C175.97 64.7595 176.334 64.8239 176.746 64.8239C177.125 64.8239 177.447 64.7727 177.712 64.6705C177.981 64.5682 178.188 64.4261 178.332 64.2443C178.476 64.0625 178.549 63.8542 178.553 63.6193C178.549 63.3996 178.481 63.2121 178.349 63.0568C178.216 62.8977 178.012 62.7614 177.735 62.6477C177.462 62.5303 177.114 62.4223 176.69 62.3239L175.474 62.0398C174.466 61.8087 173.673 61.4356 173.093 60.9205C172.513 60.4015 172.226 59.7008 172.229 58.8182C172.226 58.0985 172.419 57.4678 172.809 56.9261C173.199 56.3845 173.739 55.9621 174.428 55.6591C175.118 55.3561 175.904 55.2045 176.786 55.2045C177.688 55.2045 178.47 55.358 179.133 55.6648C179.799 55.9678 180.317 56.3939 180.684 56.9432C181.051 57.4924 181.239 58.1288 181.246 58.8523H178.553ZM186.9 67.1648C185.983 67.1648 185.195 66.9773 184.536 66.6023C183.881 66.2235 183.375 65.697 183.019 65.0227C182.667 64.3447 182.491 63.5587 182.491 62.6648C182.491 61.767 182.667 60.9811 183.019 60.3068C183.375 59.6288 183.881 59.1023 184.536 58.7273C185.195 58.3485 185.983 58.1591 186.9 58.1591C187.817 58.1591 188.603 58.3485 189.258 58.7273C189.917 59.1023 190.423 59.6288 190.775 60.3068C191.131 60.9811 191.309 61.767 191.309 62.6648C191.309 63.5587 191.131 64.3447 190.775 65.0227C190.423 65.697 189.917 66.2235 189.258 66.6023C188.603 66.9773 187.817 67.1648 186.9 67.1648ZM186.917 65.0682C187.25 65.0682 187.532 64.9659 187.763 64.7614C187.995 64.5568 188.171 64.2727 188.292 63.9091C188.417 63.5455 188.479 63.125 188.479 62.6477C188.479 62.1629 188.417 61.7386 188.292 61.375C188.171 61.0114 187.995 60.7273 187.763 60.5227C187.532 60.3182 187.25 60.2159 186.917 60.2159C186.572 60.2159 186.281 60.3182 186.042 60.5227C185.807 60.7273 185.627 61.0114 185.502 61.375C185.381 61.7386 185.32 62.1629 185.32 62.6477C185.32 63.125 185.381 63.5455 185.502 63.9091C185.627 64.2727 185.807 64.5568 186.042 64.7614C186.281 64.9659 186.572 65.0682 186.917 65.0682ZM196.806 67.1648C195.889 67.1648 195.102 66.9773 194.442 66.6023C193.787 66.2235 193.281 65.697 192.925 65.0227C192.573 64.3447 192.397 63.5587 192.397 62.6648C192.397 61.767 192.573 60.9811 192.925 60.3068C193.281 59.6288 193.787 59.1023 194.442 58.7273C195.102 58.3485 195.889 58.1591 196.806 58.1591C197.723 58.1591 198.509 58.3485 199.164 58.7273C199.823 59.1023 200.329 59.6288 200.681 60.3068C201.037 60.9811 201.215 61.767 201.215 62.6648C201.215 63.5587 201.037 64.3447 200.681 65.0227C200.329 65.697 199.823 66.2235 199.164 66.6023C198.509 66.9773 197.723 67.1648 196.806 67.1648ZM196.823 65.0682C197.156 65.0682 197.439 64.9659 197.67 64.7614C197.901 64.5568 198.077 64.2727 198.198 63.9091C198.323 63.5455 198.386 63.125 198.386 62.6477C198.386 62.1629 198.323 61.7386 198.198 61.375C198.077 61.0114 197.901 60.7273 197.67 60.5227C197.439 60.3182 197.156 60.2159 196.823 60.2159C196.478 60.2159 196.187 60.3182 195.948 60.5227C195.713 60.7273 195.533 61.0114 195.408 61.375C195.287 61.7386 195.227 62.1629 195.227 62.6477C195.227 63.125 195.287 63.5455 195.408 63.9091C195.533 64.2727 195.713 64.5568 195.948 64.7614C196.187 64.9659 196.478 65.0682 196.823 65.0682ZM205.417 62.0227V67H202.638V58.2727H205.281V59.875H205.377C205.57 59.3409 205.9 58.9223 206.366 58.6193C206.832 58.3125 207.387 58.1591 208.031 58.1591C208.644 58.1591 209.176 58.2973 209.627 58.5739C210.082 58.8466 210.434 59.2292 210.684 59.7216C210.938 60.2102 211.063 60.7822 211.059 61.4375V67H208.281V61.983C208.284 61.4981 208.161 61.1193 207.911 60.8466C207.665 60.5739 207.322 60.4375 206.883 60.4375C206.591 60.4375 206.334 60.5019 206.11 60.6307C205.89 60.7557 205.72 60.9356 205.599 61.1705C205.481 61.4053 205.421 61.6894 205.417 62.0227ZM217.063 55.2557V69.5795H212.205V67.5398H214.37V57.2955H212.205V55.2557H217.063Z" fill="#262626"/>
<defs>
<filter id="filter0_d_250_85" x="0.269531" y="0" width="316.73" height="121.94" filterUnits="userSpaceOnUse" color-interpolation-filters="sRGB">
<feFlood flood-opacity="0" result="BackgroundImageFix"/>
<feColorMatrix in="SourceAlpha" type="matrix" values="0 0 0 0 0 0 0 0 0 0 0 0 0 0 0 0 0 0 127 0" result="hardAlpha"/>
<feOffset/>
<feGaussianBlur stdDeviation="12.5"/>
<feComposite in2="hardAlpha" operator="out"/>
<feColorMatrix type="matrix" values="0 0 0 0 0.86 0 0 0 0 1 0 0 0 0 0 0 0 0 1 0"/>
<feBlend mode="normal" in2="BackgroundImageFix" result="effect1_dropShadow_250_85"/>
<feBlend mode="normal" in="SourceGraphic" in2="effect1_dropShadow_250_85" result="shape"/>
</filter>
</defs>
</svg>
