<svg width="319" height="119" viewBox="0 0 319 119" fill="none" xmlns="http://www.w3.org/2000/svg">
<g filter="url(#filter0_d_230_101)">
<path d="M25.6898 30.275C25.5319 27.4099 27.8127 25 30.6822 25H288.584C291.345 25 293.584 27.2386 293.584 30V61.8072C293.584 63.7168 292.804 65.5434 291.424 66.8639L265.164 92.0011C263.827 93.2813 262.037 93.9795 260.186 93.9431L33.5854 89.4817C30.9692 89.4302 28.8353 87.3703 28.6914 84.7577L25.6898 30.275Z" fill="#D2FF20"/>
</g>
<path d="M90.3528 65.6761V47.7713H96.4252V50.321H93.7193V63.1264H96.4252V65.6761H90.3528ZM103.82 49.4545H107.286V59.5114C107.282 60.4536 107.057 61.2775 106.612 61.983C106.167 62.6837 105.551 63.2282 104.765 63.6165C103.984 64.0047 103.079 64.1989 102.052 64.1989C101.143 64.1989 100.317 64.0402 99.5733 63.723C98.8347 63.4058 98.2452 62.9134 97.8049 62.2457C97.3693 61.5781 97.1538 60.7235 97.1586 59.6818H100.66C100.674 60.0559 100.745 60.3755 100.873 60.6406C101.006 60.901 101.188 61.0975 101.42 61.2301C101.652 61.3627 101.929 61.429 102.251 61.429C102.587 61.429 102.871 61.358 103.103 61.2159C103.335 61.0691 103.51 60.8537 103.629 60.5696C103.752 60.2855 103.816 59.9328 103.82 59.5114V49.4545ZM114.586 64.206C113.44 64.206 112.455 63.9716 111.631 63.5028C110.812 63.0294 110.18 62.3712 109.735 61.5284C109.295 60.6809 109.074 59.6984 109.074 58.581C109.074 57.4588 109.295 56.4763 109.735 55.6335C110.18 54.786 110.812 54.1278 111.631 53.6591C112.455 53.1856 113.44 52.9489 114.586 52.9489C115.732 52.9489 116.714 53.1856 117.533 53.6591C118.357 54.1278 118.989 54.786 119.43 55.6335C119.875 56.4763 120.097 57.4588 120.097 58.581C120.097 59.6984 119.875 60.6809 119.43 61.5284C118.989 62.3712 118.357 63.0294 117.533 63.5028C116.714 63.9716 115.732 64.206 114.586 64.206ZM114.607 61.5852C115.024 61.5852 115.376 61.4574 115.665 61.2017C115.954 60.946 116.174 60.5909 116.326 60.1364C116.482 59.6818 116.56 59.1562 116.56 58.5597C116.56 57.9536 116.482 57.4233 116.326 56.9688C116.174 56.5142 115.954 56.1591 115.665 55.9034C115.376 55.6477 115.024 55.5199 114.607 55.5199C114.176 55.5199 113.812 55.6477 113.513 55.9034C113.22 56.1591 112.995 56.5142 112.839 56.9688C112.687 57.4233 112.611 57.9536 112.611 58.5597C112.611 59.1562 112.687 59.6818 112.839 60.1364C112.995 60.5909 113.22 60.946 113.513 61.2017C113.812 61.4574 114.176 61.5852 114.607 61.5852ZM121.876 64V53.0909H125.349V64H121.876ZM123.616 51.8196C123.129 51.8196 122.71 51.6586 122.359 51.3366C122.009 51.0099 121.834 50.617 121.834 50.1577C121.834 49.7031 122.009 49.3149 122.359 48.9929C122.71 48.6662 123.129 48.5028 123.616 48.5028C124.109 48.5028 124.528 48.6662 124.873 48.9929C125.224 49.3149 125.399 49.7031 125.399 50.1577C125.399 50.617 125.224 51.0099 124.873 51.3366C124.528 51.6586 124.109 51.8196 123.616 51.8196ZM131.033 57.7784V64H127.56V53.0909H130.862V55.0938H130.983C131.225 54.4261 131.637 53.9029 132.219 53.5241C132.801 53.1406 133.495 52.9489 134.3 52.9489C135.067 52.9489 135.732 53.1217 136.296 53.4673C136.864 53.8082 137.304 54.2865 137.617 54.902C137.934 55.5128 138.09 56.2277 138.085 57.0469V64H134.612V57.7287C134.617 57.1226 134.463 56.6491 134.151 56.3082C133.843 55.9673 133.414 55.7969 132.865 55.7969C132.501 55.7969 132.179 55.8774 131.899 56.0384C131.625 56.1946 131.412 56.4195 131.26 56.7131C131.113 57.0066 131.038 57.3617 131.033 57.7784ZM149.909 64H144.532V49.4545H149.902C151.384 49.4545 152.66 49.7457 153.73 50.3281C154.805 50.9058 155.633 51.7391 156.216 52.8281C156.798 53.9124 157.089 55.2098 157.089 56.7202C157.089 58.2353 156.798 59.5374 156.216 60.6264C155.638 61.7154 154.812 62.5511 153.737 63.1335C152.662 63.7112 151.386 64 149.909 64ZM148.048 61.0028H149.774C150.588 61.0028 151.277 60.8655 151.841 60.5909C152.409 60.3116 152.837 59.8594 153.126 59.2344C153.42 58.6046 153.567 57.7666 153.567 56.7202C153.567 55.6738 153.42 54.8404 153.126 54.2202C152.833 53.5952 152.399 53.1454 151.827 52.8707C151.258 52.5914 150.558 52.4517 149.724 52.4517H148.048V61.0028ZM159.142 64V53.0909H162.615V64H159.142ZM160.882 51.8196C160.394 51.8196 159.975 51.6586 159.625 51.3366C159.274 51.0099 159.099 50.617 159.099 50.1577C159.099 49.7031 159.274 49.3149 159.625 48.9929C159.975 48.6662 160.394 48.5028 160.882 48.5028C161.374 48.5028 161.793 48.6662 162.139 48.9929C162.489 49.3149 162.665 49.7031 162.665 50.1577C162.665 50.617 162.489 51.0099 162.139 51.3366C161.793 51.6586 161.374 51.8196 160.882 51.8196ZM174.35 56.4219L171.161 56.5071C171.128 56.2798 171.038 56.0786 170.891 55.9034C170.744 55.7235 170.552 55.5838 170.316 55.4844C170.084 55.3802 169.814 55.3281 169.506 55.3281C169.103 55.3281 168.76 55.4086 168.476 55.5696C168.197 55.7306 168.059 55.9484 168.064 56.223C168.059 56.4361 168.145 56.6207 168.32 56.777C168.5 56.9332 168.819 57.0587 169.279 57.1534L171.381 57.5511C172.47 57.7595 173.28 58.1051 173.81 58.5881C174.345 59.071 174.615 59.7102 174.619 60.5057C174.615 61.2538 174.392 61.9048 173.952 62.4588C173.516 63.0128 172.92 63.4437 172.162 63.7514C171.405 64.0545 170.538 64.206 169.563 64.206C168.005 64.206 166.776 63.8864 165.877 63.2472C164.982 62.6032 164.47 61.7415 164.343 60.6619L167.773 60.5767C167.849 60.9744 168.045 61.2775 168.362 61.4858C168.68 61.6941 169.084 61.7983 169.577 61.7983C170.022 61.7983 170.384 61.7154 170.664 61.5497C170.943 61.384 171.085 61.1638 171.09 60.8892C171.085 60.643 170.976 60.4465 170.763 60.2997C170.55 60.1482 170.216 60.0298 169.762 59.9446L167.858 59.5824C166.764 59.3835 165.95 59.0166 165.415 58.4815C164.88 57.9418 164.615 57.2552 164.619 56.4219C164.615 55.6927 164.809 55.0701 165.202 54.554C165.595 54.0331 166.154 53.6354 166.878 53.3608C167.602 53.0862 168.457 52.9489 169.442 52.9489C170.919 52.9489 172.084 53.259 172.936 53.8793C173.789 54.4948 174.26 55.3423 174.35 56.4219ZM181.422 64.206C180.271 64.206 179.284 63.9692 178.46 63.4957C177.641 63.0223 177.011 62.3641 176.571 61.5213C176.131 60.6738 175.91 59.6937 175.91 58.581C175.91 57.4635 176.131 56.4834 176.571 55.6406C177.016 54.7931 177.648 54.1326 178.467 53.6591C179.291 53.1856 180.273 52.9489 181.415 52.9489C182.423 52.9489 183.301 53.1312 184.05 53.4957C184.802 53.8603 185.39 54.3764 185.811 55.044C186.237 55.7069 186.462 56.4858 186.486 57.3807H183.24C183.174 56.822 182.984 56.384 182.672 56.0668C182.364 55.7495 181.961 55.5909 181.464 55.5909C181.062 55.5909 180.709 55.7045 180.406 55.9318C180.103 56.1544 179.866 56.4858 179.696 56.9261C179.53 57.3617 179.447 57.9015 179.447 58.5455C179.447 59.1894 179.53 59.7339 179.696 60.179C179.866 60.6193 180.103 60.9531 180.406 61.1804C180.709 61.4029 181.062 61.5142 181.464 61.5142C181.786 61.5142 182.07 61.4455 182.317 61.3082C182.568 61.1709 182.773 60.9697 182.934 60.7045C183.095 60.4347 183.197 60.108 183.24 59.7244H186.486C186.452 60.6241 186.228 61.41 185.811 62.0824C185.399 62.7547 184.819 63.2779 184.071 63.652C183.327 64.0213 182.444 64.206 181.422 64.206ZM193.355 64.206C192.209 64.206 191.225 63.9716 190.401 63.5028C189.582 63.0294 188.95 62.3712 188.504 61.5284C188.064 60.6809 187.844 59.6984 187.844 58.581C187.844 57.4588 188.064 56.4763 188.504 55.6335C188.95 54.786 189.582 54.1278 190.401 53.6591C191.225 53.1856 192.209 52.9489 193.355 52.9489C194.501 52.9489 195.484 53.1856 196.303 53.6591C197.127 54.1278 197.759 54.786 198.199 55.6335C198.644 56.4763 198.867 57.4588 198.867 58.581C198.867 59.6984 198.644 60.6809 198.199 61.5284C197.759 62.3712 197.127 63.0294 196.303 63.5028C195.484 63.9716 194.501 64.206 193.355 64.206ZM193.377 61.5852C193.793 61.5852 194.146 61.4574 194.435 61.2017C194.724 60.946 194.944 60.5909 195.095 60.1364C195.252 59.6818 195.33 59.1562 195.33 58.5597C195.33 57.9536 195.252 57.4233 195.095 56.9688C194.944 56.5142 194.724 56.1591 194.435 55.9034C194.146 55.6477 193.793 55.5199 193.377 55.5199C192.946 55.5199 192.581 55.6477 192.283 55.9034C191.989 56.1591 191.764 56.5142 191.608 56.9688C191.457 57.4233 191.381 57.9536 191.381 58.5597C191.381 59.1562 191.457 59.6818 191.608 60.1364C191.764 60.5909 191.989 60.946 192.283 61.2017C192.581 61.4574 192.946 61.5852 193.377 61.5852ZM200.646 64V53.0909H204.019V55.0795H204.133C204.332 54.3598 204.656 53.8248 205.106 53.4744C205.556 53.1193 206.079 52.9418 206.676 52.9418C206.837 52.9418 207.002 52.9536 207.173 52.9773C207.343 52.9962 207.502 53.027 207.649 53.0696V56.0881C207.483 56.0312 207.265 55.9863 206.995 55.9531C206.73 55.92 206.493 55.9034 206.285 55.9034C205.873 55.9034 205.501 55.9957 205.17 56.1804C204.843 56.3603 204.585 56.6136 204.396 56.9403C204.211 57.2623 204.119 57.6411 204.119 58.0767V64H200.646ZM212.482 64.1562C211.677 64.1562 210.945 63.9479 210.287 63.5312C209.629 63.1146 209.103 62.4896 208.71 61.6562C208.317 60.8229 208.121 59.7884 208.121 58.5526C208.121 57.2694 208.325 56.2135 208.732 55.3849C209.139 54.5563 209.672 53.9432 210.33 53.5455C210.993 53.1477 211.705 52.9489 212.468 52.9489C213.04 52.9489 213.53 53.0483 213.938 53.2472C214.345 53.4413 214.681 53.6922 214.946 54C215.211 54.3078 215.413 54.6274 215.55 54.9588H215.621V49.4545H219.094V64H215.656V62.2315H215.55C215.403 62.5677 215.195 62.8826 214.925 63.1761C214.655 63.4697 214.316 63.7064 213.909 63.8864C213.507 64.0663 213.031 64.1562 212.482 64.1562ZM213.689 61.4503C214.11 61.4503 214.47 61.3319 214.769 61.0952C215.067 60.8537 215.297 60.5152 215.458 60.0795C215.619 59.6439 215.699 59.1326 215.699 58.5455C215.699 57.9489 215.619 57.4351 215.458 57.0043C215.301 56.5734 215.072 56.242 214.769 56.0099C214.47 55.7779 214.11 55.6619 213.689 55.6619C213.258 55.6619 212.894 55.7803 212.595 56.017C212.297 56.2538 212.07 56.5876 211.914 57.0185C211.762 57.4493 211.686 57.9583 211.686 58.5455C211.686 59.1326 211.764 59.6439 211.921 60.0795C212.077 60.5152 212.302 60.8537 212.595 61.0952C212.894 61.3319 213.258 61.4503 213.689 61.4503ZM226.645 49.3196V67.2244H220.573V64.6747H223.279V51.8693H220.573V49.3196H226.645Z" fill="#262626"/>
<defs>
<filter id="filter0_d_230_101" x="0.682129" y="0" width="317.902" height="118.944" filterUnits="userSpaceOnUse" color-interpolation-filters="sRGB">
<feFlood flood-opacity="0" result="BackgroundImageFix"/>
<feColorMatrix in="SourceAlpha" type="matrix" values="0 0 0 0 0 0 0 0 0 0 0 0 0 0 0 0 0 0 127 0" result="hardAlpha"/>
<feOffset/>
<feGaussianBlur stdDeviation="12.5"/>
<feComposite in2="hardAlpha" operator="out"/>
<feColorMatrix type="matrix" values="0 0 0 0 0.86 0 0 0 0 1 0 0 0 0 0 0 0 0 1 0"/>
<feBlend mode="normal" in2="BackgroundImageFix" result="effect1_dropShadow_230_101"/>
<feBlend mode="normal" in="SourceGraphic" in2="effect1_dropShadow_230_101" result="shape"/>
</filter>
</defs>
</svg>
