<svg width="995" height="214" viewBox="0 0 995 214" fill="none" xmlns="http://www.w3.org/2000/svg">
<g filter="url(#filter0_d_0_1)">
<mask id="path-1-inside-1_0_1" fill="white">
<path fill-rule="evenodd" clip-rule="evenodd" d="M60.0321 50.3523C54.3726 50.3523 49.8409 55.0449 50.0382 60.701L53.0045 145.708C53.191 151.055 57.5528 155.307 62.9025 155.359L93.0566 155.648L100.031 146.362C101.92 143.847 104.882 142.368 108.027 142.368H290.226C293.331 142.368 296.26 143.81 298.153 146.272L306.94 157.698L901.006 163.393C903.875 163.421 906.617 162.215 908.536 160.083L937.246 128.178L944.57 61.4433C945.22 55.5241 940.585 50.3523 934.63 50.3523H60.0321Z"/>
</mask>
<path fill-rule="evenodd" clip-rule="evenodd" d="M60.0321 50.3523C54.3726 50.3523 49.8409 55.0449 50.0382 60.701L53.0045 145.708C53.191 151.055 57.5528 155.307 62.9025 155.359L93.0566 155.648L100.031 146.362C101.92 143.847 104.882 142.368 108.027 142.368H290.226C293.331 142.368 296.26 143.81 298.153 146.272L306.94 157.698L901.006 163.393C903.875 163.421 906.617 162.215 908.536 160.083L937.246 128.178L944.57 61.4433C945.22 55.5241 940.585 50.3523 934.63 50.3523H60.0321Z" fill="url(#paint0_linear_0_1)"/>
<path d="M50.0382 60.701L45.0413 60.8754L50.0382 60.701ZM53.0045 145.708L58.0014 145.534L53.0045 145.708ZM62.9025 155.359L62.9504 150.359H62.9504L62.9025 155.359ZM93.0566 155.648L93.0086 160.648L95.5363 160.672L97.0544 158.651L93.0566 155.648ZM100.031 146.362L96.0335 143.359L96.0335 143.359L100.031 146.362ZM298.153 146.272L302.116 143.224V143.224L298.153 146.272ZM306.94 157.698L302.976 160.746L304.459 162.675L306.892 162.698L306.94 157.698ZM901.006 163.393L901.054 158.394L901.006 163.393ZM908.536 160.083L912.252 163.428L912.252 163.428L908.536 160.083ZM937.246 128.178L940.962 131.523L942.04 130.325L942.216 128.724L937.246 128.178ZM944.57 61.4433L949.541 61.9889V61.9888L944.57 61.4433ZM55.0352 60.5267C54.9365 57.6986 57.2024 55.3523 60.0321 55.3523V45.3523C51.5428 45.3523 44.7452 52.3912 45.0413 60.8754L55.0352 60.5267ZM58.0014 145.534L55.0352 60.5267L45.0413 60.8754L48.0075 145.882L58.0014 145.534ZM62.9504 150.359C60.2756 150.333 58.0947 148.207 58.0014 145.534L48.0075 145.882C48.2874 153.902 54.83 160.282 62.8546 160.359L62.9504 150.359ZM93.1045 150.648L62.9504 150.359L62.8546 160.359L93.0086 160.648L93.1045 150.648ZM97.0544 158.651L104.029 149.365L96.0335 143.359L89.0587 152.645L97.0544 158.651ZM104.029 149.365C104.974 148.107 106.455 147.368 108.027 147.368V137.368C103.309 137.368 98.8668 139.587 96.0335 143.359L104.029 149.365ZM108.027 147.368H290.226V137.368H108.027V147.368ZM290.226 147.368C291.778 147.368 293.243 148.089 294.189 149.32L302.116 143.224C299.277 139.531 294.883 137.368 290.226 137.368V147.368ZM294.189 149.32L302.976 160.746L310.903 154.65L302.116 143.224L294.189 149.32ZM901.054 158.394L306.988 152.699L306.892 162.698L900.958 168.393L901.054 158.394ZM904.819 156.738C903.859 157.805 902.488 158.407 901.054 158.394L900.958 168.393C905.261 168.434 909.374 166.626 912.252 163.428L904.819 156.738ZM933.529 124.834L904.819 156.738L912.252 163.428L940.962 131.523L933.529 124.834ZM939.6 60.8978L932.275 127.633L942.216 128.724L949.541 61.9889L939.6 60.8978ZM934.63 55.3523C937.608 55.3523 939.925 57.9382 939.6 60.8978L949.541 61.9888C950.515 53.11 943.562 45.3523 934.63 45.3523V55.3523ZM60.0321 55.3523H934.63V45.3523H60.0321V55.3523Z" fill="#D2FF20" mask="url(#path-1-inside-1_0_1)"/>
</g>
<path d="M805.238 54.6523H892.094L866.468 158.707L768.03 157.847L805.238 54.6523Z" fill="#627A87" fill-opacity="0.15"/>
<path d="M762.742 55.5122H783.894L744.031 158.707L698.879 158.277L762.742 55.5122Z" fill="#627A87" fill-opacity="0.15"/>
<defs>
<filter id="filter0_d_0_1" x="0.0320129" y="0.352295" width="994.599" height="213.042" filterUnits="userSpaceOnUse" color-interpolation-filters="sRGB">
<feFlood flood-opacity="0" result="BackgroundImageFix"/>
<feColorMatrix in="SourceAlpha" type="matrix" values="0 0 0 0 0 0 0 0 0 0 0 0 0 0 0 0 0 0 127 0" result="hardAlpha"/>
<feOffset/>
<feGaussianBlur stdDeviation="25"/>
<feComposite in2="hardAlpha" operator="out"/>
<feColorMatrix type="matrix" values="0 0 0 0 0.823529 0 0 0 0 1 0 0 0 0 0.12549 0 0 0 1 0"/>
<feBlend mode="normal" in2="BackgroundImageFix" result="effect1_dropShadow_0_1"/>
<feBlend mode="normal" in="SourceGraphic" in2="effect1_dropShadow_0_1" result="shape"/>
</filter>
<linearGradient id="paint0_linear_0_1" x1="185.556" y1="50.3524" x2="915.543" y2="152.131" gradientUnits="userSpaceOnUse">
<stop stop-color="#3B4B54"/>
<stop offset="1" stop-color="#303334"/>
</linearGradient>
</defs>
</svg>
