<svg width="996" height="375" viewBox="0 0 996 375" fill="none" xmlns="http://www.w3.org/2000/svg">
<g filter="url(#filter0_d_0_1)">
<mask id="path-1-inside-1_0_1" fill="white">
<path fill-rule="evenodd" clip-rule="evenodd" d="M50.0011 60.9061C49.9208 55.3275 54.4209 50.7622 60 50.7622H935.916C941.614 50.7622 946.16 55.516 945.906 61.2082L944.005 103.795L935.681 116.371C935.17 117.144 934.884 118.045 934.856 118.973L931.987 214.112C931.937 215.754 932.697 217.318 934.019 218.297L938.738 221.789L935.797 287.68L909.176 321.195C907.229 323.648 904.244 325.046 901.114 324.973L316.736 311.389L306.466 298.034C304.573 295.573 301.644 294.13 298.539 294.13H116.34C113.195 294.13 110.234 295.61 108.345 298.124L102.128 306.4L63.1457 305.494C57.7707 305.369 53.4564 301.017 53.3791 295.641L50.0011 60.9061Z"/>
</mask>
<path fill-rule="evenodd" clip-rule="evenodd" d="M50.0011 60.9061C49.9208 55.3275 54.4209 50.7622 60 50.7622H935.916C941.614 50.7622 946.16 55.516 945.906 61.2082L944.005 103.795L935.681 116.371C935.17 117.144 934.884 118.045 934.856 118.973L931.987 214.112C931.937 215.754 932.697 217.318 934.019 218.297L938.738 221.789L935.797 287.68L909.176 321.195C907.229 323.648 904.244 325.046 901.114 324.973L316.736 311.389L306.466 298.034C304.573 295.573 301.644 294.13 298.539 294.13H116.34C113.195 294.13 110.234 295.61 108.345 298.124L102.128 306.4L63.1457 305.494C57.7707 305.369 53.4564 301.017 53.3791 295.641L50.0011 60.9061Z" fill="url(#paint0_linear_0_1)"/>
<path d="M50.0011 60.9061L45.0016 60.978L50.0011 60.9061ZM945.906 61.2082L940.911 60.9851L940.911 60.9852L945.906 61.2082ZM944.005 103.795L948.174 106.555L948.938 105.401L949 104.018L944.005 103.795ZM935.681 116.371L931.512 113.611L931.512 113.611L935.681 116.371ZM934.856 118.973L929.858 118.822V118.822L934.856 118.973ZM931.987 214.112L936.984 214.263V214.263L931.987 214.112ZM934.019 218.297L936.994 214.278V214.278L934.019 218.297ZM938.738 221.789L943.733 222.012L943.852 219.354L941.712 217.77L938.738 221.789ZM935.797 287.68L939.712 290.79L940.719 289.522L940.792 287.903L935.797 287.68ZM909.176 321.195L905.261 318.085L905.261 318.086L909.176 321.195ZM901.114 324.973L901.23 319.974L901.114 324.973ZM316.736 311.389L312.772 314.437L314.23 316.332L316.62 316.388L316.736 311.389ZM306.466 298.034L310.43 294.986V294.986L306.466 298.034ZM108.345 298.124L104.347 295.121H104.347L108.345 298.124ZM102.128 306.4L102.012 311.399L104.582 311.459L106.126 309.403L102.128 306.4ZM63.1457 305.494L63.2619 300.495H63.2619L63.1457 305.494ZM53.3791 295.641L58.3786 295.569L53.3791 295.641ZM60 45.7622C51.6313 45.7622 44.8812 52.6102 45.0016 60.978L55.0005 60.8342C54.9604 58.0449 57.2105 55.7622 60 55.7622V45.7622ZM935.916 45.7622H60V55.7622H935.916V45.7622ZM950.901 61.4312C951.282 52.8928 944.463 45.7622 935.916 45.7622V55.7622C938.765 55.7622 941.038 58.1391 940.911 60.9851L950.901 61.4312ZM949 104.018L950.901 61.4311L940.911 60.9852L939.01 103.572L949 104.018ZM939.851 119.13L948.174 106.555L939.836 101.035L931.512 113.611L939.851 119.13ZM939.854 119.124C939.854 119.124 939.854 119.127 939.851 119.13L931.512 113.611C930.486 115.161 929.914 116.966 929.858 118.822L939.854 119.124ZM936.984 214.263L939.854 119.124L929.858 118.822L926.989 213.962L936.984 214.263ZM936.994 214.278C936.991 214.276 936.99 214.275 936.989 214.274C936.988 214.272 936.987 214.271 936.986 214.269C936.985 214.267 936.984 214.265 936.984 214.265C936.984 214.264 936.984 214.264 936.984 214.263L926.989 213.962C926.89 217.244 928.408 220.365 931.044 222.316L936.994 214.278ZM941.712 217.77L936.994 214.278L931.044 222.316L935.763 225.808L941.712 217.77ZM940.792 287.903L943.733 222.012L933.743 221.566L930.801 287.457L940.792 287.903ZM913.092 324.305L939.712 290.79L931.881 284.571L905.261 318.085L913.092 324.305ZM900.997 329.972C905.694 330.081 910.17 327.984 913.092 324.305L905.261 318.086C904.287 319.312 902.795 320.011 901.23 319.974L900.997 329.972ZM316.62 316.388L900.997 329.972L901.23 319.974L316.852 306.39L316.62 316.388ZM302.502 301.082L312.772 314.437L320.7 308.341L310.43 294.986L302.502 301.082ZM298.539 299.13C300.092 299.13 301.556 299.851 302.502 301.082L310.43 294.986C307.59 291.294 303.197 289.13 298.539 289.13V299.13ZM116.34 299.13H298.539V289.13H116.34V299.13ZM112.343 301.127C113.287 299.87 114.768 299.13 116.34 299.13V289.13C111.623 289.13 107.18 291.349 104.347 295.121L112.343 301.127ZM106.126 309.403L112.343 301.127L104.347 295.121L98.1306 303.397L106.126 309.403ZM63.0295 310.493L102.012 311.399L102.245 301.402L63.2619 300.495L63.0295 310.493ZM48.3796 295.713C48.4956 303.777 54.967 310.305 63.0295 310.493L63.2619 300.495C60.5744 300.433 58.4172 298.257 58.3786 295.569L48.3796 295.713ZM45.0016 60.978L48.3796 295.713L58.3786 295.569L55.0005 60.8342L45.0016 60.978Z" fill="#D2FF20" mask="url(#path-1-inside-1_0_1)"/>
</g>
<path d="M805.421 55.062H891.993L866.45 319.929L768.335 317.74L805.421 55.062Z" fill="#627A87" fill-opacity="0.15"/>
<path d="M762.742 55.062H783.792L744.12 317.349L699.184 316.256L762.742 55.062Z" fill="#627A87" fill-opacity="0.15"/>
<defs>
<filter id="filter0_d_0_1" x="0" y="0.762207" width="995.916" height="374.213" filterUnits="userSpaceOnUse" color-interpolation-filters="sRGB">
<feFlood flood-opacity="0" result="BackgroundImageFix"/>
<feColorMatrix in="SourceAlpha" type="matrix" values="0 0 0 0 0 0 0 0 0 0 0 0 0 0 0 0 0 0 127 0" result="hardAlpha"/>
<feOffset/>
<feGaussianBlur stdDeviation="25"/>
<feComposite in2="hardAlpha" operator="out"/>
<feColorMatrix type="matrix" values="0 0 0 0 0.823529 0 0 0 0 1 0 0 0 0 0.12549 0 0 0 1 0"/>
<feBlend mode="normal" in2="BackgroundImageFix" result="effect1_dropShadow_0_1"/>
<feBlend mode="normal" in="SourceGraphic" in2="effect1_dropShadow_0_1" result="shape"/>
</filter>
<linearGradient id="paint0_linear_0_1" x1="185.783" y1="50.762" x2="927.948" y2="93.4434" gradientUnits="userSpaceOnUse">
<stop stop-color="#3B4B54"/>
<stop offset="1" stop-color="#303334"/>
</linearGradient>
</defs>
</svg>
