<svg width="312" height="119" viewBox="0 0 312 119" fill="none" xmlns="http://www.w3.org/2000/svg">
<g filter="url(#filter0_d_244_2)">
<path d="M25.2836 30.2687C25.1295 27.4059 27.4093 25 30.2763 25H282C284.761 25 287 27.2386 287 30V61.8553C287 63.7366 286.243 65.5386 284.899 66.8552L259.296 91.9421C257.953 93.2583 256.136 93.9787 254.256 93.9408L33.1081 89.4839C30.4905 89.4312 28.3568 87.368 28.2161 84.7536L25.2836 30.2687Z" fill="#D2FF20"/>
</g>
<path d="M113.277 68.6761V50.7713H119.349V53.321H116.643V66.1264H119.349V68.6761H113.277ZM120.359 55.3097V52.4545H132.653V55.3097H128.243V67H124.777V55.3097H120.359ZM135.159 67L132.318 56.0909H135.805L137.275 63.0795H137.368L138.944 56.0909H142.346L143.966 63.0298H144.058L145.485 56.0909H148.973L146.125 67H142.41L140.706 60.6435H140.585L138.88 67H135.159ZM150.366 67V56.0909H153.839V67H150.366ZM152.107 54.8196C151.619 54.8196 151.2 54.6586 150.849 54.3366C150.499 54.0099 150.324 53.617 150.324 53.1577C150.324 52.7031 150.499 52.3149 150.849 51.9929C151.2 51.6662 151.619 51.5028 152.107 51.5028C152.599 51.5028 153.018 51.6662 153.364 51.9929C153.714 52.3149 153.889 52.7031 153.889 53.1577C153.889 53.617 153.714 54.0099 153.364 54.3366C153.018 54.6586 152.599 54.8196 152.107 54.8196ZM162.208 56.0909V58.6477H155.326V56.0909H162.208ZM156.767 53.4773H160.24V63.5696C160.24 63.7827 160.274 63.9555 160.34 64.0881C160.411 64.2159 160.513 64.3082 160.645 64.3651C160.778 64.4171 160.936 64.4432 161.121 64.4432C161.254 64.4432 161.393 64.4313 161.54 64.4077C161.692 64.3793 161.805 64.3556 161.881 64.3366L162.407 66.8438C162.241 66.8911 162.007 66.9503 161.703 67.0213C161.405 67.0923 161.048 67.1373 160.631 67.1562C159.817 67.1941 159.118 67.0994 158.536 66.8722C157.958 66.6402 157.516 66.2803 157.208 65.7926C156.905 65.3049 156.758 64.6918 156.767 63.9531V53.4773ZM170.137 56.0909V58.6477H163.255V56.0909H170.137ZM164.697 53.4773H168.17V63.5696C168.17 63.7827 168.203 63.9555 168.27 64.0881C168.341 64.2159 168.442 64.3082 168.575 64.3651C168.708 64.4171 168.866 64.4432 169.051 64.4432C169.183 64.4432 169.323 64.4313 169.47 64.4077C169.621 64.3793 169.735 64.3556 169.811 64.3366L170.336 66.8438C170.171 66.8911 169.936 66.9503 169.633 67.0213C169.335 67.0923 168.977 67.1373 168.561 67.1562C167.746 67.1941 167.048 67.0994 166.466 66.8722C165.888 66.6402 165.445 66.2803 165.137 65.7926C164.834 65.3049 164.688 64.6918 164.697 63.9531V53.4773ZM176.892 67.206C175.751 67.206 174.766 66.9811 173.937 66.5312C173.113 66.0767 172.479 65.4304 172.034 64.5923C171.593 63.7495 171.373 62.7481 171.373 61.5881C171.373 60.4612 171.596 59.4763 172.041 58.6335C172.486 57.786 173.113 57.1278 173.923 56.6591C174.733 56.1856 175.687 55.9489 176.785 55.9489C177.562 55.9489 178.272 56.0696 178.916 56.3111C179.56 56.5526 180.116 56.91 180.585 57.3835C181.054 57.857 181.418 58.4418 181.679 59.1378C181.939 59.8291 182.069 60.6222 182.069 61.517V62.3835H172.588V60.3665H178.838C178.833 59.9972 178.745 59.6681 178.575 59.3793C178.404 59.0904 178.17 58.8655 177.872 58.7045C177.578 58.5388 177.24 58.456 176.856 58.456C176.468 58.456 176.12 58.5436 175.812 58.7188C175.504 58.8892 175.261 59.1236 175.081 59.4219C174.901 59.7154 174.806 60.0492 174.797 60.4233V62.4759C174.797 62.9209 174.884 63.3116 175.059 63.6477C175.234 63.9792 175.483 64.2372 175.805 64.4219C176.127 64.6065 176.511 64.6989 176.956 64.6989C177.263 64.6989 177.543 64.6562 177.794 64.571C178.045 64.4858 178.26 64.3603 178.44 64.1946C178.62 64.0289 178.755 63.8253 178.845 63.5838L182.034 63.6761C181.901 64.3911 181.61 65.0137 181.16 65.544C180.715 66.0696 180.13 66.4792 179.406 66.7727C178.681 67.0616 177.843 67.206 176.892 67.206ZM183.843 67V56.0909H187.217V58.0795H187.33C187.529 57.3598 187.853 56.8248 188.303 56.4744C188.753 56.1193 189.276 55.9418 189.873 55.9418C190.034 55.9418 190.2 55.9536 190.37 55.9773C190.54 55.9962 190.699 56.027 190.846 56.0696V59.0881C190.68 59.0312 190.462 58.9863 190.192 58.9531C189.927 58.92 189.691 58.9034 189.482 58.9034C189.07 58.9034 188.699 58.9957 188.367 59.1804C188.04 59.3603 187.782 59.6136 187.593 59.9403C187.408 60.2623 187.316 60.6411 187.316 61.0767V67H183.843ZM197.616 52.3196V70.2244H191.544V67.6747H194.25V54.8693H191.544V52.3196H197.616Z" fill="#262626"/>
<defs>
<filter id="filter0_d_244_2" x="0.276245" y="0" width="311.724" height="118.942" filterUnits="userSpaceOnUse" color-interpolation-filters="sRGB">
<feFlood flood-opacity="0" result="BackgroundImageFix"/>
<feColorMatrix in="SourceAlpha" type="matrix" values="0 0 0 0 0 0 0 0 0 0 0 0 0 0 0 0 0 0 127 0" result="hardAlpha"/>
<feOffset/>
<feGaussianBlur stdDeviation="12.5"/>
<feComposite in2="hardAlpha" operator="out"/>
<feColorMatrix type="matrix" values="0 0 0 0 0.86 0 0 0 0 1 0 0 0 0 0 0 0 0 1 0"/>
<feBlend mode="normal" in2="BackgroundImageFix" result="effect1_dropShadow_244_2"/>
<feBlend mode="normal" in="SourceGraphic" in2="effect1_dropShadow_244_2" result="shape"/>
</filter>
</defs>
</svg>
