<svg width="319" height="119" viewBox="0 0 319 119" fill="none" xmlns="http://www.w3.org/2000/svg">
<g filter="url(#filter0_d_230_102)">
<path d="M25.2906 30.275C25.1328 27.4099 27.4135 25 30.283 25H288.185C290.946 25 293.185 27.2386 293.185 30V61.8072C293.185 63.7168 292.404 65.5434 291.025 66.8639L264.765 92.0011C263.428 93.2813 261.638 93.9795 259.787 93.9431L33.1862 89.4817C30.5701 89.4302 28.4361 87.3703 28.2922 84.7577L25.2906 30.275Z" fill="#00CDFA"/>
</g>
<path d="M93.0188 65.6761V47.7713H99.0913V50.321H96.3853V63.1264H99.0913V65.6761H93.0188ZM106.487 49.4545H109.952V59.5114C109.948 60.4536 109.723 61.2775 109.278 61.983C108.833 62.6837 108.217 63.2282 107.431 63.6165C106.65 64.0047 105.746 64.1989 104.718 64.1989C103.809 64.1989 102.983 64.0402 102.239 63.723C101.501 63.4058 100.911 62.9134 100.471 62.2457C100.035 61.5781 99.8198 60.7235 99.8246 59.6818H103.326C103.34 60.0559 103.411 60.3755 103.539 60.6406C103.672 60.901 103.854 61.0975 104.086 61.2301C104.318 61.3627 104.595 61.429 104.917 61.429C105.253 61.429 105.537 61.358 105.769 61.2159C106.001 61.0691 106.176 60.8537 106.295 60.5696C106.418 60.2855 106.482 59.9328 106.487 59.5114V49.4545ZM117.252 64.206C116.106 64.206 115.121 63.9716 114.297 63.5028C113.478 63.0294 112.846 62.3712 112.401 61.5284C111.961 60.6809 111.74 59.6984 111.74 58.581C111.74 57.4588 111.961 56.4763 112.401 55.6335C112.846 54.786 113.478 54.1278 114.297 53.6591C115.121 53.1856 116.106 52.9489 117.252 52.9489C118.398 52.9489 119.38 53.1856 120.199 53.6591C121.023 54.1278 121.655 54.786 122.096 55.6335C122.541 56.4763 122.763 57.4588 122.763 58.581C122.763 59.6984 122.541 60.6809 122.096 61.5284C121.655 62.3712 121.023 63.0294 120.199 63.5028C119.38 63.9716 118.398 64.206 117.252 64.206ZM117.273 61.5852C117.69 61.5852 118.042 61.4574 118.331 61.2017C118.62 60.946 118.84 60.5909 118.992 60.1364C119.148 59.6818 119.226 59.1562 119.226 58.5597C119.226 57.9536 119.148 57.4233 118.992 56.9688C118.84 56.5142 118.62 56.1591 118.331 55.9034C118.042 55.6477 117.69 55.5199 117.273 55.5199C116.842 55.5199 116.478 55.6477 116.179 55.9034C115.886 56.1591 115.661 56.5142 115.505 56.9688C115.353 57.4233 115.277 57.9536 115.277 58.5597C115.277 59.1562 115.353 59.6818 115.505 60.1364C115.661 60.5909 115.886 60.946 116.179 61.2017C116.478 61.4574 116.842 61.5852 117.273 61.5852ZM124.542 64V53.0909H128.015V64H124.542ZM126.282 51.8196C125.795 51.8196 125.376 51.6586 125.025 51.3366C124.675 51.0099 124.5 50.617 124.5 50.1577C124.5 49.7031 124.675 49.3149 125.025 48.9929C125.376 48.6662 125.795 48.5028 126.282 48.5028C126.775 48.5028 127.194 48.6662 127.539 48.9929C127.89 49.3149 128.065 49.7031 128.065 50.1577C128.065 50.617 127.89 51.0099 127.539 51.3366C127.194 51.6586 126.775 51.8196 126.282 51.8196ZM133.699 57.7784V64H130.226V53.0909H133.528V55.0938H133.649C133.891 54.4261 134.303 53.9029 134.885 53.5241C135.467 53.1406 136.161 52.9489 136.966 52.9489C137.733 52.9489 138.398 53.1217 138.962 53.4673C139.53 53.8082 139.97 54.2865 140.283 54.902C140.6 55.5128 140.756 56.2277 140.751 57.0469V64H137.278V57.7287C137.283 57.1226 137.129 56.6491 136.817 56.3082C136.509 55.9673 136.08 55.7969 135.531 55.7969C135.167 55.7969 134.845 55.8774 134.565 56.0384C134.291 56.1946 134.078 56.4195 133.926 56.7131C133.779 57.0066 133.704 57.3617 133.699 57.7784ZM146.723 52.3097V49.4545H159.017V52.3097H154.606V64H151.14V52.3097H146.723ZM161.522 64L158.681 53.0909H162.168L163.638 60.0795H163.731L165.308 53.0909H168.71L170.329 60.0298H170.421L171.849 53.0909H175.336L172.488 64H168.773L167.069 57.6435H166.948L165.244 64H161.522ZM176.73 64V53.0909H180.203V64H176.73ZM178.47 51.8196C177.982 51.8196 177.563 51.6586 177.213 51.3366C176.862 51.0099 176.687 50.617 176.687 50.1577C176.687 49.7031 176.862 49.3149 177.213 48.9929C177.563 48.6662 177.982 48.5028 178.47 48.5028C178.962 48.5028 179.381 48.6662 179.727 48.9929C180.077 49.3149 180.252 49.7031 180.252 50.1577C180.252 50.617 180.077 51.0099 179.727 51.3366C179.381 51.6586 178.962 51.8196 178.47 51.8196ZM188.571 53.0909V55.6477H181.689V53.0909H188.571ZM183.131 50.4773H186.604V60.5696C186.604 60.7827 186.637 60.9555 186.703 61.0881C186.774 61.2159 186.876 61.3082 187.009 61.3651C187.141 61.4171 187.3 61.4432 187.484 61.4432C187.617 61.4432 187.757 61.4313 187.903 61.4077C188.055 61.3793 188.169 61.3556 188.244 61.3366L188.77 63.8438C188.604 63.8911 188.37 63.9503 188.067 64.0213C187.768 64.0923 187.411 64.1373 186.994 64.1562C186.18 64.1941 185.482 64.0994 184.899 63.8722C184.321 63.6402 183.879 63.2803 183.571 62.7926C183.268 62.3049 183.121 61.6918 183.131 60.9531V50.4773ZM196.501 53.0909V55.6477H189.619V53.0909H196.501ZM191.06 50.4773H194.533V60.5696C194.533 60.7827 194.567 60.9555 194.633 61.0881C194.704 61.2159 194.806 61.3082 194.938 61.3651C195.071 61.4171 195.229 61.4432 195.414 61.4432C195.547 61.4432 195.686 61.4313 195.833 61.4077C195.985 61.3793 196.098 61.3556 196.174 61.3366L196.7 63.8438C196.534 63.8911 196.299 63.9503 195.996 64.0213C195.698 64.0923 195.341 64.1373 194.924 64.1562C194.11 64.1941 193.411 64.0994 192.829 63.8722C192.251 63.6402 191.808 63.2803 191.501 62.7926C191.198 62.3049 191.051 61.6918 191.06 60.9531V50.4773ZM203.255 64.206C202.114 64.206 201.129 63.9811 200.3 63.5312C199.477 63.0767 198.842 62.4304 198.397 61.5923C197.957 60.7495 197.737 59.7481 197.737 58.5881C197.737 57.4612 197.959 56.4763 198.404 55.6335C198.849 54.786 199.477 54.1278 200.286 53.6591C201.096 53.1856 202.05 52.9489 203.148 52.9489C203.925 52.9489 204.635 53.0696 205.279 53.3111C205.923 53.5526 206.479 53.91 206.948 54.3835C207.417 54.857 207.781 55.4418 208.042 56.1378C208.302 56.8291 208.433 57.6222 208.433 58.517V59.3835H198.951V57.3665H205.201C205.196 56.9972 205.109 56.6681 204.938 56.3793C204.768 56.0904 204.533 55.8655 204.235 55.7045C203.942 55.5388 203.603 55.456 203.219 55.456C202.831 55.456 202.483 55.5436 202.175 55.7188C201.868 55.8892 201.624 56.1236 201.444 56.4219C201.264 56.7154 201.169 57.0492 201.16 57.4233V59.4759C201.16 59.9209 201.247 60.3116 201.423 60.6477C201.598 60.9792 201.846 61.2372 202.168 61.4219C202.49 61.6065 202.874 61.6989 203.319 61.6989C203.627 61.6989 203.906 61.6562 204.157 61.571C204.408 61.4858 204.623 61.3603 204.803 61.1946C204.983 61.0289 205.118 60.8253 205.208 60.5838L208.397 60.6761C208.264 61.3911 207.973 62.0137 207.523 62.544C207.078 63.0696 206.494 63.4792 205.769 63.7727C205.045 64.0616 204.207 64.206 203.255 64.206ZM210.206 64V53.0909H213.58V55.0795H213.694C213.892 54.3598 214.217 53.8248 214.667 53.4744C215.116 53.1193 215.64 52.9418 216.236 52.9418C216.397 52.9418 216.563 52.9536 216.733 52.9773C216.904 52.9962 217.062 53.027 217.209 53.0696V56.0881C217.043 56.0312 216.826 55.9863 216.556 55.9531C216.291 55.92 216.054 55.9034 215.846 55.9034C215.434 55.9034 215.062 55.9957 214.73 56.1804C214.404 56.3603 214.146 56.6136 213.956 56.9403C213.772 57.2623 213.679 57.6411 213.679 58.0767V64H210.206ZM223.979 49.3196V67.2244H217.907V64.6747H220.613V51.8693H217.907V49.3196H223.979Z" fill="white"/>
<defs>
<filter id="filter0_d_230_102" x="0.282715" y="0" width="317.902" height="118.944" filterUnits="userSpaceOnUse" color-interpolation-filters="sRGB">
<feFlood flood-opacity="0" result="BackgroundImageFix"/>
<feColorMatrix in="SourceAlpha" type="matrix" values="0 0 0 0 0 0 0 0 0 0 0 0 0 0 0 0 0 0 127 0" result="hardAlpha"/>
<feOffset/>
<feGaussianBlur stdDeviation="12.5"/>
<feComposite in2="hardAlpha" operator="out"/>
<feColorMatrix type="matrix" values="0 0 0 0 0 0 0 0 0 0.803922 0 0 0 0 0.980392 0 0 0 1 0"/>
<feBlend mode="normal" in2="BackgroundImageFix" result="effect1_dropShadow_230_102"/>
<feBlend mode="normal" in="SourceGraphic" in2="effect1_dropShadow_230_102" result="shape"/>
</filter>
</defs>
</svg>
